<?xml version="1.0" encoding="utf-8"?>
<!-- Generator: Adobe Illustrator 24.0.1, SVG Export Plug-In . SVG Version: 6.00 Build 0)  -->
<svg version="1.1" id="Layer_1" xmlns="http://www.w3.org/2000/svg" xmlns:xlink="http://www.w3.org/1999/xlink" x="0px" y="0px"
	 viewBox="0 0 114 114" style="enable-background:new 0 0 114 114;" xml:space="preserve">
<style type="text/css">
	.st0{fill:url(#SVGID_1_);}
	.st1{fill:url(#SVGID_2_);}
	.st2{fill:url(#SVGID_3_);}
	.st3{fill:#FFFFFF;}
	.st4{fill:url(#SVGID_4_);}
	.st5{fill:#0005FF;}
</style>
<g>
	<g>
		<path d="M11.09,53.67V5.56h21.65c3.44,0,6.58,0.75,9.42,2.23c2.84,1.49,5.11,3.55,6.81,6.19c1.69,2.64,2.54,5.69,2.54,9.18
			c0,3.48-0.85,6.56-2.54,9.24c-1.7,2.68-3.96,4.78-6.81,6.29c-2.84,1.51-5.98,2.27-9.42,2.27h-6.8v12.72H11.09z M25.94,29.34h5.22
			c0.96,0,1.84-0.24,2.65-0.72c0.8-0.48,1.45-1.17,1.96-2.06c0.5-0.89,0.76-1.98,0.76-3.26c0-1.28-0.25-2.38-0.76-3.3
			c-0.5-0.92-1.16-1.62-1.96-2.1c-0.8-0.48-1.68-0.72-2.65-0.72h-5.22V29.34z"/>
		<path d="M49.79,53.67l15.4-42.07c0.87-2.29,2.3-4.02,4.3-5.19c1.99-1.17,4.25-1.75,6.77-1.75c2.52,0,4.78,0.57,6.77,1.72
			c1.99,1.15,3.43,2.86,4.3,5.16l15.4,42.14H86.98l-2.61-8.39H67.94l-2.75,8.39H49.79z M71.03,33.95h10.24l-4.47-15.47
			c-0.05-0.14-0.12-0.24-0.21-0.31c-0.09-0.07-0.21-0.1-0.34-0.1c-0.09,0-0.18,0.03-0.28,0.1c-0.09,0.07-0.16,0.17-0.21,0.31
			L71.03,33.95z"/>
		<path d="M11.09,107.86V59.75h22.82c3.48,0,6.64,0.73,9.49,2.2c2.84,1.47,5.11,3.5,6.81,6.08c1.69,2.59,2.54,5.58,2.54,8.97
			c0,2.8-0.68,5.42-2.03,7.87c-1.35,2.45-3.15,4.48-5.4,6.08l2.68,4.19c0.32,0.46,0.66,0.8,1.03,1.03c0.37,0.23,0.92,0.34,1.65,0.34
			h3.44v11.34h-7.7c-2.43,0-4.59-0.53-6.5-1.58c-1.9-1.05-3.36-2.43-4.36-4.12l-4.61-7.77c-0.18,0-0.37,0-0.55,0
			c-0.18,0-0.37,0-0.55,0h-3.92v13.47H11.09z M25.94,83.05h6.46c0.92,0,1.79-0.24,2.61-0.72c0.82-0.48,1.49-1.17,1.99-2.06
			c0.5-0.89,0.76-1.93,0.76-3.13c0-1.19-0.25-2.21-0.76-3.06c-0.5-0.85-1.17-1.51-1.99-1.99c-0.83-0.48-1.7-0.72-2.61-0.72h-6.46
			V83.05z"/>
		<path d="M62.25,107.86V59.75H77.1v18.42h5.64c0.96,0,1.82-0.23,2.58-0.69c0.76-0.46,1.36-1.12,1.82-1.99
			c0.46-0.87,0.69-1.9,0.69-3.09V59.75h14.85v12.92c0,2.8-0.68,5.37-2.03,7.73c-1.35,2.36-3.15,4.32-5.4,5.88l4.12,8.73
			c0.23,0.46,0.55,0.82,0.96,1.1c0.41,0.27,0.89,0.41,1.44,0.41h3.64v11.34h-7.77c-2.93,0-5.27-0.52-7.01-1.55
			c-1.74-1.03-3.07-2.44-3.99-4.23l-5.91-12.37c-0.18,0-0.37,0-0.55,0c-0.18,0-0.37,0-0.55,0H77.1v18.15H62.25z"/>
	</g>
</g>
</svg>
